<mxfile host="app.diagrams.net" modified="2023-10-27T11:00:00.000Z" agent="Gemini" etag="unique-etag-77889" version="22.0.8" type="device">
  <diagram name="Payment Flow Sitemap" id="diagram-3">
    <mxGraphModel dx="1434" dy="742" grid="1" gridSize="10" guides="1" tooltips="1" connect="1" arrows="1" fold="1" page="1" pageScale="1" pageWidth="1169" pageHeight="1654" math="0" shadow="0">
      <root>
        <mxCell id="0" />
        <mxCell id="1" parent="0" />
        <mxCell id="2" value="Trang ứng dụng&lt;br&gt;(Ví dụ: Bảng điều khiển)" style="rounded=1;whiteSpace=wrap;html=1;fillColor=#d5e8d4;strokeColor=#82b366;fontStyle=1;fontSize=14;" vertex="1" parent="1">
          <mxGeometry x="475" y="40" width="220" height="70" as="geometry" />
        </mxCell>
        <mxCell id="3" value="Click nút &quot;Nâng cấp&quot;" style="edgeStyle=orthogonalEdgeStyle;rounded=0;orthogonalLoop=1;jettySize=auto;html=1;endArrow=classic;endFill=1;" edge="1" parent="1" source="2" target="4">
          <mxGeometry relative="1" as="geometry">
            <mxPoint x="585" y="150" as="targetPoint" />
          </mxGeometry>
        </mxCell>
        <mxCell id="4" value="Trang các gói dịch vụ" style="rounded=1;whiteSpace=wrap;html=1;fillColor=#dae8fc;strokeColor=#6c8ebf;" vertex="1" parent="1">
          <mxGeometry x="495" y="200" width="180" height="60" as="geometry" />
        </mxCell>
        <mxCell id="5" value="Chọn gói &amp; thanh toán" style="edgeStyle=orthogonalEdgeStyle;rounded=0;orthogonalLoop=1;jettySize=auto;html=1;endArrow=classic;endFill=1;" edge="1" parent="1" source="4" target="6">
          <mxGeometry relative="1" as="geometry">
            <mxPoint x="585" y="300" as="targetPoint" />
          </mxGeometry>
        </mxCell>
        <mxCell id="6" value="Cổng thanh toán&lt;br&gt;(Bên ngoài, vd: MoMo)" style="rounded=1;whiteSpace=wrap;html=1;fillColor=#fff2cc;strokeColor=#d6b656;shape=cylinder3;size=15;" vertex="1" parent="1">
          <mxGeometry x="495" y="340" width="180" height="70" as="geometry" />
        </mxCell>
        <mxCell id="7" value="Chuyển hướng về sau khi thanh toán" style="edgeStyle=orthogonalEdgeStyle;rounded=0;orthogonalLoop=1;jettySize=auto;html=1;endArrow=classic;endFill=1;" edge="1" parent="1" source="6" target="8">
          <mxGeometry relative="1" as="geometry">
            <mxPoint x="585" y="450" as="targetPoint" />
          </mxGeometry>
        </mxCell>
        <mxCell id="8" value="Trang kết quả thanh toán" style="rounded=1;whiteSpace=wrap;html=1;fillColor=#dae8fc;strokeColor=#6c8ebf;" vertex="1" parent="1">
          <mxGeometry x="495" y="490" width="180" height="60" as="geometry" />
        </mxCell>
        <mxCell id="9" value="Thành công" style="edgeStyle=orthogonalEdgeStyle;rounded=0;orthogonalLoop=1;jettySize=auto;html=1;endArrow=classic;endFill=1;" edge="1" parent="1" source="8" target="10">
          <mxGeometry relative="1" as="geometry">
            <mxPoint x="585" y="590" as="targetPoint" />
            <Array as="points">
              <mxPoint x="585" y="580" />
              <mxPoint x="365" y="580" />
            </Array>
          </mxGeometry>
        </mxCell>
        <mxCell id="10" value="Trang ứng dụng&lt;br&gt;(Cập nhật trạng thái gói)" style="rounded=1;whiteSpace=wrap;html=1;fillColor=#d5e8d4;strokeColor=#82b366;" vertex="1" parent="1">
          <mxGeometry x="275" y="620" width="180" height="70" as="geometry" />
        </mxCell>
        <mxCell id="11" value="Thất bại" style="edgeStyle=orthogonalEdgeStyle;rounded=0;orthogonalLoop=1;jettySize=auto;html=1;endArrow=classic;endFill=1;" edge="1" parent="1" source="8" target="12">
          <mxGeometry relative="1" as="geometry">
            <mxPoint x="595" y="590" as="targetPoint" />
            <Array as="points">
              <mxPoint x="585" y="580" />
              <mxPoint x="805" y="580" />
            </Array>
          </mxGeometry>
        </mxCell>
        <mxCell id="12" value="Trang các gói dịch vụ&lt;br&gt;(Thông báo lỗi)" style="rounded=1;whiteSpace=wrap;html=1;fillColor=#f8cecc;strokeColor=#b85450;" vertex="1" parent="1">
          <mxGeometry x="715" y="620" width="180" height="70" as="geometry" />
        </mxCell>
      </root>
    </mxGraphModel>
  </diagram>
</mxfile>
